<svg width="57" height="54" viewBox="0 0 57 54" fill="none" xmlns="http://www.w3.org/2000/svg">
<path d="M55.7458 27C55.7458 41.3132 43.5378 53 28.3729 53C13.2079 53 1 41.3132 1 27C1 12.6868 13.2079 1 28.3729 1C43.5378 1 55.7458 12.6868 55.7458 27Z" fill="white" stroke="black" stroke-width="2"/>
<path d="M20.1025 20.461L20.0772 30.6825C20.0603 33.3021 20.5669 34.7887 21.5971 35.1423C21.7154 35.2387 21.7745 35.3512 21.7745 35.4798C21.7745 35.6084 21.7154 35.7128 21.5971 35.7932C20.1109 36.8378 18.8781 38.2762 17.8985 40.1084C17.7972 40.253 17.6621 40.3253 17.4932 40.3253C17.3412 40.3253 17.223 40.253 17.1385 40.1084C16.159 38.2923 14.8755 36.8619 13.2879 35.8173C13.1866 35.7209 13.1359 35.6084 13.1359 35.4798C13.1359 35.3512 13.195 35.2387 13.3133 35.1423C14.4448 34.7887 14.9937 33.3021 14.9599 30.6825V22.1727C14.9599 20.5334 14.639 19.5289 13.9973 19.1593C13.2542 18.6932 12.6462 18.8619 12.1733 19.6655C11.9875 20.003 11.768 20.0994 11.5146 19.9548C11.2782 19.7941 11.2951 19.4968 11.5653 19.0628C12.0551 18.3235 12.5195 17.5682 12.9586 16.7968C13.4146 16.0253 13.879 15.2539 14.3519 14.4825C14.6221 14.0164 15.0021 13.92 15.4919 14.1932L15.5172 14.2173C17.9492 15.3584 19.4185 16.7727 19.9252 18.4602C19.9758 18.6209 20.0687 18.7093 20.2038 18.7253C20.3389 18.7735 20.474 18.7575 20.6092 18.6771C21.4367 18.0021 22.3065 17.2789 23.2184 16.5075C24.1473 15.72 24.7891 15.045 25.1437 14.4825C25.414 14.0325 25.7855 13.936 26.2584 14.1932C28.6904 15.3343 30.1681 16.7244 30.6917 18.3637C30.7592 18.5887 30.8605 18.7012 30.9957 18.7012C31.1308 18.7012 31.249 18.653 31.3503 18.5566C32.2623 17.8494 33.1574 17.1182 34.0356 16.3628C34.9307 15.5914 35.5556 14.8682 35.9102 14.1932C36.096 13.7753 36.4 13.7834 36.8222 14.2173C37.8355 15.2298 38.7053 16.0334 39.4315 16.628C40.1577 17.2227 41.3822 17.6646 43.1048 17.9539C43.3581 18.0021 43.4932 18.1066 43.5101 18.2673C43.5101 18.5405 43.4172 18.6852 43.2315 18.7012C42.7924 18.8619 42.4039 19.1432 42.0661 19.545C41.7284 19.9307 41.5595 20.5816 41.5595 21.4977V31.9843C41.5595 33.6235 41.8804 34.628 42.5221 34.9977C43.2652 35.4155 43.8732 35.2387 44.3461 34.4673C44.515 34.1619 44.7177 34.0977 44.9541 34.2744C45.2074 34.4352 45.2159 34.7084 44.9794 35.0941C44.4728 35.8494 43.9914 36.6128 43.5355 37.3843C43.0795 38.1396 42.6235 38.895 42.1675 39.6503C41.8635 40.1003 41.4835 40.2048 41.0275 39.9637C39.4906 39.2566 38.3338 38.3887 37.5569 37.3602C36.7969 36.3316 36.4169 35.1021 36.4169 33.6718L36.4422 21.0396C36.4422 20.5575 36.3071 20.228 36.0369 20.0512L33.9089 18.3637C33.7063 18.2352 33.5036 18.2271 33.3009 18.3396C32.2032 19.1432 31.5276 19.6494 31.2743 19.8584C31.021 20.0512 30.8943 20.2682 30.8943 20.5093L30.869 30.6825C30.869 33.3182 31.3841 34.8048 32.4143 35.1423C32.5325 35.2548 32.5916 35.3673 32.5916 35.4798C32.5916 35.5762 32.5325 35.6807 32.4143 35.7932C30.9281 36.8057 29.6868 38.2441 28.6904 40.1084C28.589 40.253 28.4539 40.3253 28.285 40.3253C28.1161 40.3253 28.0064 40.253 27.9557 40.1084C26.993 38.3244 25.7095 36.8941 24.1051 35.8173C23.9869 35.7369 23.9278 35.6325 23.9278 35.5039C23.9278 35.3753 23.9869 35.2548 24.1051 35.1423C25.3042 34.7887 25.8615 33.3021 25.7771 30.6825L25.7517 22.1727C25.7517 20.9834 25.4309 19.9789 24.7891 19.1593C23.9953 18.1628 23.1931 17.97 22.3825 18.5807L20.2545 20.1235L20.1532 20.2682L20.1025 20.461Z" fill="black"/>
</svg>
